<?xml version="1.0" encoding="UTF-8"?>
<svg id="Layer_2" data-name="Layer 2" xmlns="http://www.w3.org/2000/svg" xmlns:xlink="http://www.w3.org/1999/xlink" viewBox="0 0 451.18 76">
  <defs>
    <style>
      .cls-1 {
        filter: url(#drop-shadow-2);
      }

      .cls-2 {
        fill: #fff;
      }

      .cls-3 {
        filter: url(#drop-shadow-1);
      }
    </style>
    <filter id="drop-shadow-1" x=".44" y="0" width="446.17" height="34.31" filterUnits="userSpaceOnUse">
      <feOffset dx="2.67" dy="2.67"/>
      <feGaussianBlur result="blur" stdDeviation="0"/>
      <feFlood flood-color="#000" flood-opacity="1"/>
      <feComposite in2="blur" operator="in"/>
      <feComposite in="SourceGraphic"/>
    </filter>
    <filter id="drop-shadow-2" x="0" y="35.55" width="448.16" height="39.87" filterUnits="userSpaceOnUse">
      <feOffset dx="3.02" dy="3.02"/>
      <feGaussianBlur result="blur-2" stdDeviation="0"/>
      <feFlood flood-color="#000" flood-opacity="1"/>
      <feComposite in2="blur-2" operator="in"/>
      <feComposite in="SourceGraphic"/>
    </filter>
  </defs>
  <g id="Layer_1_-_Title" data-name="Layer 1 - Title">
    <g id="Layer_9" data-name="Layer 9">
      <g class="cls-3">
        <path class="cls-2" d="M9.85.57c0-.36.21-.57.57-.57h3.67c.43,0,.61.21.61.57v27.36c0,.36-.18.57-.61.57h-3.67c-.36,0-.57-.21-.57-.57v-11.33h-4.56v11.33c0,.36-.21.57-.57.57H1.05c-.43,0-.61-.21-.61-.57V.57c0-.36.18-.57.61-.57h3.67c.36,0,.57.21.57.57v11.33h4.56V.57Z"/>
        <path class="cls-2" d="M18.26,8.69c0-3.35,1.78-5.13,5.13-5.13h3.99c3.35,0,5.13,1.78,5.13,5.13v14.68c0,3.35-1.78,5.13-5.13,5.13h-3.99c-3.35,0-5.13-1.78-5.13-5.13v-14.68ZM26.6,23.91c.93,0,1.43-.46,1.43-1.43v-12.9c0-.93-.5-1.43-1.43-1.43h-2.28c-.93,0-1.43.5-1.43,1.43v12.9c0,.96.5,1.43,1.43,1.43h2.28Z"/>
        <path class="cls-2" d="M50.72,3.56c.36,0,.57.21.57.57v23.8c0,.36-.21.57-.57.57h-2.81c-.32,0-.5-.14-.64-.46l-6.7-13.61v13.5c0,.36-.18.57-.57.57h-3.35c-.36,0-.57-.21-.57-.57V4.13c0-.36.21-.57.57-.57h2.81c.32,0,.5.14.64.46l6.7,13.61V4.13c0-.36.18-.57.57-.57h3.35Z"/>
        <path class="cls-2" d="M54.86,8.69c0-3.35,1.78-5.13,5.13-5.13h3.99c3.31,0,5.13,1.78,5.13,5.13v2.64c0,.36-.21.57-.57.57h-3.35c-.39,0-.57-.21-.57-.57v-1.75c0-.93-.5-1.43-1.43-1.43h-2.28c-.96,0-1.43.5-1.43,1.43v12.9c0,.96.5,1.43,1.43,1.43h2.28c.93,0,1.43-.46,1.43-1.43v-3.1h-1.85c-.39,0-.57-.21-.57-.57v-3.56c0-.39.18-.57.57-.57h5.77c.36,0,.57.18.57.57v8.12c0,3.35-1.82,5.13-5.13,5.13h-3.99c-3.35,0-5.13-1.78-5.13-5.13v-14.68Z"/>
        <path class="cls-2" d="M93.05,28.5c-.43,0-.68-.18-.82-.53l-4.49-10.58-1.32,2.53v7.87c0,.46-.25.71-.71.71h-3.42c-.46,0-.71-.25-.71-.71V.71c0-.46.25-.71.71-.71h3.42c.46,0,.71.25.71.71v11.04l5.49-11.22c.18-.36.43-.53.82-.53h3.74c.53,0,.75.36.5.85l-6.06,12.43,6.45,14.39c.25.46.04.82-.53.82h-3.78Z"/>
        <path class="cls-2" d="M99.97,8.69c0-3.35,1.78-5.13,5.13-5.13h3.99c3.35,0,5.13,1.78,5.13,5.13v14.68c0,3.35-1.78,5.13-5.13,5.13h-3.99c-3.35,0-5.13-1.78-5.13-5.13v-14.68ZM108.31,23.91c.93,0,1.43-.46,1.43-1.43v-12.9c0-.93-.5-1.43-1.43-1.43h-2.28c-.93,0-1.43.5-1.43,1.43v12.9c0,.96.5,1.43,1.43,1.43h2.28Z"/>
        <path class="cls-2" d="M132.43,3.56c.36,0,.57.21.57.57v23.8c0,.36-.21.57-.57.57h-2.81c-.32,0-.5-.14-.64-.46l-6.7-13.61v13.5c0,.36-.18.57-.57.57h-3.35c-.36,0-.57-.21-.57-.57V4.13c0-.36.21-.57.57-.57h2.81c.32,0,.5.14.64.46l6.7,13.61V4.13c0-.36.18-.57.57-.57h3.35Z"/>
        <path class="cls-2" d="M136.56,8.69c0-3.35,1.78-5.13,5.13-5.13h3.99c3.31,0,5.13,1.78,5.13,5.13v2.64c0,.36-.21.57-.57.57h-3.35c-.39,0-.57-.21-.57-.57v-1.75c0-.93-.5-1.43-1.43-1.43h-2.28c-.96,0-1.43.5-1.43,1.43v12.9c0,.96.5,1.43,1.43,1.43h2.28c.93,0,1.43-.46,1.43-1.43v-3.1h-1.85c-.39,0-.57-.21-.57-.57v-3.56c0-.39.18-.57.57-.57h5.77c.36,0,.57.18.57.57v8.12c0,3.35-1.82,5.13-5.13,5.13h-3.99c-3.35,0-5.13-1.78-5.13-5.13v-14.68Z"/>
        <path class="cls-2" d="M177.54,23.37c0,2.25-.78,3.78-2.32,4.56l1.43,3.06c.18.39-.11.64-.5.64h-3.71c-.36,0-.46-.21-.61-.5l-1.21-2.64h-2.21c-3.35,0-5.13-1.78-5.13-5.13V5.13c0-3.35,1.78-5.13,5.13-5.13h3.99c3.35,0,5.13,1.78,5.13,5.13v18.24ZM168.13,22.38c0,.96.5,1.42,1.43,1.42h1.85c.93,0,1.43-.46,1.43-1.42V6.13c0-.93-.5-1.43-1.43-1.43h-1.85c-.93,0-1.43.5-1.43,1.43v16.25Z"/>
        <path class="cls-2" d="M194.64,3.56c.39,0,.71.32.71.71v19.1c0,3.35-1.78,5.13-5.13,5.13h-3.99c-3.35,0-5.13-1.78-5.13-5.13V4.28c0-.39.32-.71.71-.71h3.42c.39,0,.71.32.71.71v18.1c0,.96.5,1.42,1.43,1.42h1.85c.93,0,1.43-.46,1.43-1.42V4.28c0-.39.32-.71.71-.71h3.28Z"/>
        <path class="cls-2" d="M211.57,28.5c-.32,0-.5-.18-.57-.5l-1.14-4.49h-6.7l-1.1,4.49c-.07.32-.25.5-.57.5h-3.49c-.39,0-.57-.21-.46-.61l5.91-23.84c.07-.36.29-.5.61-.5h4.95c.32,0,.53.14.61.5l5.91,23.84c.11.39-.07.61-.5.61h-3.46ZM206.51,9.69l-2.24,9.69h4.49l-2.24-9.69Z"/>
        <path class="cls-2" d="M217.7,4.13c0-.36.18-.57.57-.57h8.55c3.35,0,5.13,1.82,5.13,5.17v14.64c0,3.35-1.78,5.13-5.13,5.13h-8.55c-.39,0-.57-.18-.57-.57V4.13ZM225.82,23.8c.93,0,1.42-.46,1.42-1.42v-12.65c0-.96-.5-1.46-1.42-1.46h-3.28v15.53h3.28Z"/>
        <path class="cls-2" d="M249.81,13.5c0,1.32-.96,2.32-2.24,2.53v.07c1.28.21,2.24,1.21,2.24,2.53v4.74c0,3.35-1.82,5.13-5.17,5.13h-8.55c-.36,0-.57-.21-.57-.57V4.13c0-.39.21-.57.57-.57h8.55c3.35,0,5.17,1.78,5.17,5.13v4.81ZM245.28,9.48c0-.93-.46-1.42-1.43-1.42h-3.92v5.67h3.92c.93,0,1.43-.5,1.43-1.39v-2.85ZM245.28,19.84c0-.93-.46-1.42-1.43-1.42h-3.92v5.59h3.92c.93,0,1.43-.46,1.43-1.42v-2.74Z"/>
        <path class="cls-2" d="M266.02,28.5c-.32,0-.5-.18-.57-.5l-1.14-4.49h-6.7l-1.1,4.49c-.07.32-.25.5-.57.5h-3.49c-.39,0-.57-.21-.46-.61l5.91-23.84c.07-.36.29-.5.61-.5h4.95c.32,0,.53.14.61.5l5.91,23.84c.11.39-.07.61-.5.61h-3.46ZM260.96,9.69l-2.25,9.69h4.49l-2.24-9.69Z"/>
        <path class="cls-2" d="M277.71,23.8h7.05c.39,0,.57.21.57.57v3.56c0,.39-.18.57-.57.57h-11.33c-.36,0-.57-.18-.57-.57V4.13c0-.36.21-.57.57-.57h3.71c.39,0,.57.21.57.57v19.67Z"/>
        <path class="cls-2" d="M293.74,23.8h7.05c.39,0,.57.21.57.57v3.56c0,.39-.18.57-.57.57h-11.33c-.36,0-.57-.18-.57-.57V4.13c0-.36.21-.57.57-.57h3.71c.39,0,.57.21.57.57v19.67Z"/>
        <path class="cls-2" d="M328.13,8.98c0,.36-.21.57-.57.57h-3.56c-.39,0-.57-.21-.57-.57v-2.85c0-.93-.5-1.43-1.43-1.43h-1.85c-.96,0-1.42.5-1.42,1.43v16.25c0,.96.5,1.42,1.42,1.42h1.85c.93,0,1.43-.46,1.43-1.42v-2.85c0-.36.18-.57.57-.57h3.56c.36,0,.57.21.57.57v3.85c0,3.35-1.82,5.13-5.13,5.13h-3.99c-3.35,0-5.17-1.78-5.17-5.13V5.13c0-3.35,1.82-5.13,5.17-5.13h3.99c3.31,0,5.13,1.78,5.13,5.13v3.85Z"/>
        <path class="cls-2" d="M345.23,3.56c.39,0,.71.32.71.71v19.1c0,3.35-1.78,5.13-5.13,5.13h-3.99c-3.35,0-5.13-1.78-5.13-5.13V4.28c0-.39.32-.71.71-.71h3.42c.39,0,.71.32.71.71v18.1c0,.96.5,1.42,1.42,1.42h1.85c.93,0,1.43-.46,1.43-1.42V4.28c0-.39.32-.71.71-.71h3.28Z"/>
        <path class="cls-2" d="M349.51,4.13c0-.36.21-.57.57-.57h8.55c3.35,0,5.13,1.78,5.13,5.13v6.98c0,3.31-1.78,5.09-5.13,5.13l-4.49.04v7.13c0,.36-.18.57-.57.57l-3.49-.04c-.36,0-.57-.21-.57-.57V4.13ZM357.7,16.21c.96,0,1.42-.53,1.42-1.42v-5.2c0-.93-.46-1.43-1.42-1.43l-3.56.04v8.05l3.56-.04Z"/>
        <path class="cls-2" d="M381.58,19.13c-.36.21-.5.46-.5.85v3.1c0,.46.25.71.71.71h3.85v-1.46c0-.46.25-.71.71-.71h3.42c.46,0,.71.25.71.71v5.45c0,.46-.25.71-.71.71h-12.83c-.46,0-.71-.25-.71-.71v-10.51c0-.68.25-.96.93-1.32l8.48-4.56v-5.27c0-.93-.53-1.43-1.43-1.43h-1.71c-.96,0-1.42.5-1.42,1.43v2.78c0,.36-.21.57-.57.57h-3.71c-.39,0-.57-.21-.57-.57v-3.78c0-3.35,1.78-5.13,5.13-5.13h3.99c3.31,0,5.13,1.78,5.13,5.13v8.41c0,.68-.29.96-.96,1.32l-7.95,4.28Z"/>
        <path class="cls-2" d="M394.05,5.13c0-3.35,1.78-5.13,5.13-5.13h3.99c3.35,0,5.13,1.78,5.13,5.13v18.24c0,3.35-1.78,5.13-5.13,5.13h-3.99c-3.35,0-5.13-1.78-5.13-5.13V5.13ZM402.28,23.91c.93,0,1.42-.46,1.42-1.43V6.02c0-.93-.5-1.42-1.42-1.42h-2.07c-.93,0-1.42.5-1.42,1.42v16.46c0,.96.5,1.43,1.42,1.43h2.07Z"/>
        <path class="cls-2" d="M417.21,19.13c-.36.21-.5.46-.5.85v3.1c0,.46.25.71.71.71h3.85v-1.46c0-.46.25-.71.71-.71h3.42c.46,0,.71.25.71.71v5.45c0,.46-.25.71-.71.71h-12.83c-.46,0-.71-.25-.71-.71v-10.51c0-.68.25-.96.93-1.32l8.48-4.56v-5.27c0-.93-.53-1.43-1.42-1.43h-1.71c-.96,0-1.42.5-1.42,1.43v2.78c0,.36-.21.57-.57.57h-3.71c-.39,0-.57-.21-.57-.57v-3.78c0-3.35,1.78-5.13,5.13-5.13h3.99c3.31,0,5.13,1.78,5.13,5.13v8.41c0,.68-.29.96-.96,1.32l-7.95,4.28Z"/>
        <path class="cls-2" d="M438.95,11.01c3.24,0,4.99,1.75,4.99,4.99v7.52c0,3.24-1.75,4.99-4.99,4.99h-4.28c-3.24,0-4.99-1.75-4.99-4.99v-9.16c0-.68.11-1.14.36-1.78l5.06-12.04c.14-.36.39-.53.82-.53h3.71c.54,0,.75.32.54.82l-4.31,10.19h3.1ZM437.81,23.8c.93,0,1.42-.5,1.42-1.42v-5.24c0-.93-.5-1.42-1.42-1.42h-2c-.93,0-1.43.5-1.43,1.42v5.24c0,.93.5,1.42,1.43,1.42h2Z"/>
      </g>
      <g class="cls-1">
        <path class="cls-2" d="M26.52,59.45c1.77-.16,3.18.6,4.23,2.29.72,1.13.6,2.05-.36,2.78-.56.32-1.6.38-3.1.16-4.86-.67-9.71-.58-14.57.28-2.31.35-4.99,1.23-8.05,2.66-2.52.35-4.08-.95-4.67-3.9.13-.35.39-.64.76-.89.91-.46,1.99-.8,3.22-1.05,3.65-.59,7.94-1.17,12.88-1.73l9.66-.6ZM17.87,42.27c1.42-.38,2.7.27,3.82,1.93.78,1.21.38,2.09-1.21,2.66-3.97,1.69-7.25,2.59-9.82,2.7-1.88-.54-3.06-1.82-3.54-3.86-.13-1.1.32-1.65,1.37-1.65,2.68-.05,5.81-.64,9.38-1.77Z"/>
        <path class="cls-2" d="M58.96,35.71c1.72-.21,2.95-.11,3.7.32.64,1.15.23,1.95-1.25,2.38l-1.81.24c-.27.16-.4.51-.4,1.05-.16,1.07.38,1.45,1.61,1.13,1.96-.13,3.96-.17,6-.12.86.16,1.72-.09,2.58-.76.43-.24.97,0,1.61.72.97,1.07,1.56,2.15,1.77,3.22.08.38-.05.71-.4,1.01-.62.3-1.61.32-2.98.08-.75-.35-1.56-.38-2.42-.08-.54.21-1.06.56-1.57,1.05-.27.35-.81.38-1.61.08l-1.61-.28c-.67-.13-1.02-.42-1.05-.85.32-.46.93-.8,1.81-1.05.89-.16,1.62,0,2.21.48.67.78,1.46.44,2.38-1.01.29-.4.43-.74.4-1.01-.16-.29-.54-.36-1.13-.2-2.2.03-4.62.17-7.24.44-.43.24-.64.55-.64.93.29,3.11-.05,5.37-1.05,6.76-.11.24,0,.48.32.72,2.52.78,5.15,2.21,7.89,4.31,1.13.75,2.2,1.34,3.22,1.77,1.74.89,3.49,1.83,5.23,2.82.75.62.72.91-.08.89-1.34-.16-2.56-.04-3.66.36-.78.24-1.32.34-1.61.28-2.58-.64-5.78-2.67-9.62-6.08-1.02-.7-2.09-1.17-3.22-1.41-.7-.21-1.23-.2-1.61.04-1.88,1.34-4.01,3.02-6.4,5.03-2.25,1.91-4.67,3.6-7.24,5.07-1.05.59-1.36.46-.93-.4,1.29-1.77,3.02-3.74,5.19-5.92,1.88-1.64,3.76-3.18,5.63-4.63.62-.64.59-1.09-.08-1.33l-2.94-.52c-.35.03-.63-.16-.85-.56.03-.13.21-.38.56-.72.81-.54,1.62-.74,2.46-.6,1.07.05,1.78.5,2.13,1.33.08.54.19.82.32.85.35.03.86-.2,1.53-.68.8-.24,1.18-.64,1.13-1.21-.22-1.02-.27-2.56-.16-4.63.35-1.26-.11-1.87-1.37-1.81-2.74.35-5.42,1.09-8.05,2.21-.67.56-.95,1.61-.85,3.14.13.86-.15,1.66-.85,2.42-.75.7-1.19,1.05-1.33,1.05-.4-.27-.7-.84-.89-1.73-.22-2.39.05-4.76.81-7.12.38-.89,1.05-1.07,2.01-.56.54.13,1.07.17,1.61.12,2.47-.48,5.15-.91,8.05-1.29.89-.13,1.19-.58.93-1.33-.24-.56-.68-.64-1.33-.24-1.99.46-3.01-.47-3.06-2.78.51-.54,1.09-.8,1.73-.8l6.44-.56ZM48.5,45.89c.7-.46,1.82-.48,3.38-.08.99.78,1.14,1.45.44,2.01-.67.24-1.88.11-3.62-.4-.89-.35-.95-.86-.2-1.53ZM59.89,59.25c.62-.19,1.5.21,2.66,1.21,1.48.99,1.46,1.99-.04,2.98-1.07.86-2.15,1.66-3.22,2.42-1.1.64-1.27,1.39-.52,2.25,1.34,1.26,1.23,2.59-.32,3.98-.78.59-1.49.27-2.13-.97-.32-.54-.75-1.07-1.29-1.61-1.1-.86-1.65-1.71-1.65-2.54.48-.62,1.45-.68,2.9-.2.64.16,1.14-.05,1.49-.64.62-1.26.98-2.41,1.09-3.46-.11-.38-.38-.52-.81-.44-.27.05-.67.2-1.21.44-1.07.48-2.15,1.06-3.22,1.73-1.05.56-2.03.7-2.94.4-.81-.35-1.06-.91-.76-1.69.78-1.15,1.77-1.76,2.98-1.81,1.61-.16,3.22-.27,4.83-.32.64.03,1.14-.27,1.49-.89.21-.35.44-.63.68-.84ZM53.85,56.48c1.26-1.02,2.7-.75,4.31.8.48.89.23,1.52-.76,1.89-.81.3-1.76.11-2.86-.56-.94-.83-1.35-1.35-1.25-1.57.16-.21.35-.4.56-.56ZM61.86,47.94c.62-.35,1.35-.48,2.21-.4,1.1.13,1.62.7,1.57,1.69-.03.59-.47.86-1.33.81-.4-.03-.8-.12-1.21-.28-.99-.11-1.65-.36-1.97-.76.08-.46.32-.8.72-1.05Z"/>
        <path class="cls-2" d="M108.95,59.45c1.77-.16,3.18.6,4.23,2.29.72,1.13.6,2.05-.36,2.78-.56.32-1.6.38-3.1.16-4.86-.67-9.71-.58-14.57.28-2.31.35-4.99,1.23-8.05,2.66-2.52.35-4.08-.95-4.67-3.9.13-.35.39-.64.76-.89.91-.46,1.99-.8,3.22-1.05,3.65-.59,7.94-1.17,12.88-1.73l9.66-.6ZM100.3,42.27c1.42-.38,2.7.27,3.82,1.93.78,1.21.38,2.09-1.21,2.66-3.97,1.69-7.25,2.59-9.82,2.7-1.88-.54-3.06-1.82-3.54-3.86-.13-1.1.32-1.65,1.37-1.65,2.68-.05,5.81-.64,9.38-1.77Z"/>
        <path class="cls-2" d="M134.83,41.18c-.21-1.61.5-2.2,2.13-1.77,2.66.91,4.36,2.63,5.11,5.15-.03.54.23.97.76,1.29,2.23.05,4.68-.05,7.37-.32,1.07-.21,2.16-.11,3.26.32,1.13.48,1.84,1.3,2.13,2.46.05,1.18-.36,1.79-1.25,1.81-1.1.03-2.47-.05-4.11-.24-2.39-.13-4.79-.17-7.2-.12-.97-.11-1.7.32-2.21,1.29-.62,1.02-1.38,1.36-2.29,1.01-.3-.16-.54-.42-.72-.76-.13-.4-.62-.6-1.45-.6-.97.16-1.95.38-2.94.64-1.99.72-4.13,1.19-6.44,1.41-1.13.24-2.2.01-3.22-.68-1.56-1.15-1.88-2.19-.97-3.1.56-.7,1.35-1.11,2.37-1.25,3.11-.64,6.71-1.06,10.79-1.25,1.58-.05,1.73-.74.44-2.05-.75-.97-1.27-2.04-1.57-3.22ZM132.62,55.47c.83-.38,1.57-.16,2.21.64.91,1.26.27,2.68-1.93,4.27-2.36,2.23-3.86,3.81-4.51,4.75-.64.64-1.23,1.13-1.77,1.45-.54.16-.78-.15-.72-.93.64-2.79,2.32-5.69,5.03-8.69.67-.72,1.23-1.22,1.69-1.49ZM143.12,55.67c.43-.86,1.23-.95,2.42-.28,3.81,1.75,5.85,4.56,6.12,8.45.21.97.07,1.77-.44,2.42-1.15,1.72-2.46,1.88-3.9.48-.38-.54-.62-1.07-.72-1.61-.22-2.15-1.06-4.29-2.54-6.44-.59-1.13-.9-2.13-.93-3.02Z"/>
        <path class="cls-2" d="M175.12,36.03c1.18-.83,2.16-.59,2.94.72.13.59.43,1.02.89,1.29.54.11,1.14.07,1.81-.12l3.22-.64c1.58-.43,2.79-.63,3.62-.6,1.93.05,2.7.97,2.29,2.74-.35.75-.79,1.18-1.33,1.29-.81.24-1.61.43-2.42.56-1.34,0-1.77.75-1.29,2.25.27.59.81.75,1.61.48.86-.11,1.68.23,2.46,1.01.89,1.4.32,2.54-1.69,3.42-1.29.21-2.13.59-2.54,1.13-.11.86-.12,1.72-.04,2.58-.13,1.53.44,2.09,1.73,1.69,2.39-.4,4.67-.68,6.84-.85.4-.03.94.11,1.61.4,1.26.62,1.89,1.66,1.89,3.14-.38.7-1.06.98-2.05.85-2.42.13-5.1.38-8.05.72-1.48,0-2.08.66-1.81,1.97.29,3.97-.16,6.98-1.37,9.02-.46.54-.87,1.07-1.25,1.61-.62,1.1-1.07,1.22-1.37.36-.24-.91-.36-2.04-.36-3.38l-.24-7.89c-.3-.35-.75-.43-1.37-.24l-6.44,1.41c-1.5.62-3.11.91-4.83.89-1.64-.24-2.56-1.23-2.78-2.98-.03-.67.23-1.17.76-1.49,1.29-.51,3.11-.95,5.47-1.33,1.26.03,1.57-.58.93-1.81-.62-1.31-.52-2.31.28-2.98.78-.24,1.62.01,2.54.76.16.27.32.8.48,1.61.27,1.48.98,2,2.13,1.57l1.13-.2c1.48-.05,2.05-.75,1.73-2.09v-1.21c0-.7-.12-1.15-.36-1.37-.38-.19-.97-.25-1.77-.2-.59-.05-1.13-.2-1.61-.44-.75-.27-1.11-.68-1.09-1.25.64-1.5,1.84-2.42,3.58-2.74,1.02-.35,1.41-.95,1.17-1.81.08-1.29-.48-1.72-1.69-1.29-.81.13-1.72-.25-2.74-1.17-.56,0-1.44.54-2.62,1.61-.86.62-1.66,1.09-2.41,1.41-.86.29-1.34.42-1.45.36-.08-.08.01-.52.28-1.33,1.1-2.76,2.95-5.25,5.55-7.45Z"/>
        <path class="cls-2" d="M223.22,36.51c.86-.54,1.56-.52,2.09.04,1.64.99,2.09,2.05,1.37,3.18-.62.43-1.61.64-2.98.64-1.05-.27-1.54.21-1.49,1.45-.03,1.5.59,1.89,1.85,1.17,1.31-.46,2.7-.52,4.15-.2,1.34.46,1.41,1.29.2,2.5l-3.46.85c-.64.03-1.02.27-1.13.72.19.38.75.76,1.69,1.17,1.83,1.1,3.97,2.74,6.44,4.91,2.68,1.48,5.1,3.06,7.24,4.75.7.67.64.98-.16.93-1.61-.21-3.22.01-4.83.68-.75.08-1.83-.43-3.22-1.53-2.17-1.74-4.12-3.76-5.84-6.04l-1.49-1.53c-.46-.48-.91-.74-1.37-.76-.43.13-.64.39-.64.76.11,2.09-.09,3.61-.6,4.55-.38.54-.58.86-.6.97.03.38.44.54,1.25.48.59.03,1.13-.09,1.61-.36.75-.59,1.35-.95,1.81-1.09.4-.03.87.27,1.41.88.91.89,1.5,1.95,1.77,3.18.56,2.79.66,5.58.28,8.37-.86,2.74-2.63,4.41-5.31,5.03-.38-.08-.54-.36-.48-.85.03-.78-.42-1.33-1.33-1.65-1.29-.27-2.47-.22-3.54.16-.8.08-1.4.5-1.77,1.25-.27.51-.58.66-.93.44-.91-.72-1.5-1.81-1.77-3.26-.38-1.4-.38-4.12,0-8.17.16-1.77.5-3.05,1.01-3.82.35-.72.91-.74,1.69-.04.54.24,1.13.32,1.77.24.91-.19,1.23-.68.97-1.49-.19-1.21-.28-2.43-.28-3.66-.54-.48-1.24-.2-2.09.84-4.67,4.48-8.57,7.67-11.71,9.58-.83.48-1.03.28-.6-.6,2.17-3.57,5.53-7.23,10.06-10.99.91-.7,1.4-1.27,1.45-1.73-.38-.27-.97-.16-1.77.32-1.29.64-2.2.93-2.74.84-1.13-.62-1.72-1.49-1.77-2.62.19-.78.87-1.17,2.05-1.17,1.61-.24,3.22-.55,4.83-.93.99-.13,1.68-.36,2.05-.68.32-.38.55-1.22.68-2.54-.11-.56-.54-.7-1.29-.4-1.21.3-2.46.38-3.74.24-.81-.13-.82-.54-.04-1.21.89-.67,1.82-1.18,2.82-1.53,1.07-.35,2.15-.64,3.22-.89,1.07-.4,2.15-.87,3.22-1.41ZM222.09,57.6c-1.29.16-2.62.59-3.98,1.29-1.42.54-1.99,1.4-1.69,2.58.13.16.62.19,1.45.08.72-.24,1.49-.43,2.29-.56,1.15.05,1.89.59,2.21,1.61.03.27-.11.5-.4.68-.3.19-.91.34-1.85.44-1.15.21-2.31.48-3.46.8-.38.35-.52.98-.44,1.89.05,1.1.64,1.45,1.77,1.05,1.45-.27,3.18-.42,5.19-.44.35-.08.59-.17.72-.28.19-.11.29-.56.32-1.37l.12-6.44c-.38-1.15-1.13-1.6-2.25-1.33Z"/>
        <path class="cls-2" d="M247.69,48.43c1.31-.48,2.7.07,4.15,1.65.35.64.27,1.29-.24,1.93-.35.75-.79.91-1.33.48-.86-.94-1.56-1.54-2.09-1.81-.86-.43-1.17-1.02-.93-1.77.11-.24.25-.4.44-.48ZM250.91,58.77c.54-.8.82-1.11.84-.93l-.52,2.09c-.51,2.33-.47,4.04.12,5.11.56.78.87,1.39.93,1.85-.03.51-.16.97-.4,1.37-.51,1.1-1.23,1.41-2.17.93-.7-.43-1.23-1.18-1.61-2.25-.3-.81-.43-1.87-.4-3.18.05-.54.25-1.09.6-1.65.7-.59,1.57-1.7,2.62-3.34ZM249.58,39.17c.54-.56,1.3-.74,2.29-.52,1.1.11,2.16.75,3.18,1.93.88,1.29.8,2.47-.24,3.54-.8.54-1.77.12-2.9-1.25-.35-.54-1.01-1.13-1.97-1.77-.62-.75-.74-1.39-.36-1.93ZM268.62,37c.43-1.58,1.3-1.66,2.62-.24.4.59.59,1.18.56,1.77,0,.67.31,1.26.93,1.77,1.15.67,1.46,1.45.93,2.33-.32.59-.95.93-1.89,1.01-.81.27-1.28.97-1.41,2.09-.48,1.1-.11,1.62,1.13,1.57,2.15-.27,3.76-.38,4.83-.32.99.24,1.68.82,2.05,1.73.56,1.53-.04,2.21-1.81,2.05-1.15-.11-2.31-.16-3.46-.16-.78-.13-1.27,0-1.49.4.05.35.21.64.48.88,2.87,2.95,5.38,5.37,7.53,7.25.75.72,1.14,1.15,1.17,1.29-.08.08-.52.11-1.33.08-.99-.13-1.77-.05-2.33.24-1.29.59-2.56-.09-3.82-2.05-.62-1.21-1.22-1.76-1.81-1.65-.08.11-.17.43-.28.97-.13.94-.54,1.95-1.21,3.02-.05.27-.01.54.12.81,0,.27-.27.54-.8.8-2.25,1.23-4.4,1.89-6.44,1.97-1.23.13-1.61.71-1.13,1.73.51.88,1.25,1.41,2.21,1.57,3.38.4,6.49.16,9.34-.72,1.29-.35,2.04-1.06,2.25-2.13.27-.86.52-.91.76-.16.27.62.76,1.13,1.49,1.53.38.21.58.39.6.52-.46.59-.87,1.23-1.25,1.93-.38.48-.86.87-1.45,1.17-2.58.81-5.46,1.18-8.65,1.13-2.2.11-4.01-.16-5.43-.8-1.4-.75-2.15-1.99-2.25-3.7-.24-2.12-.15-4.28.28-6.48.48-1.15.39-1.97-.28-2.46-.35-.03-.74.34-1.17,1.09-.86,1.32-2.09,2.8-3.7,4.47-.81.75-1.03.7-.68-.16,1.37-3.25,3.34-6.55,5.92-9.9.03-.4-.2-.54-.68-.4-.4.16-.8.36-1.21.6-1.15.51-2.08.59-2.78.24-1.42-.91-1.6-1.82-.52-2.74.86-.67,2.47-1.22,4.83-1.65.62-.08,1.09-.25,1.41-.52.35-.38.44-1.11.28-2.21.4-1.02-.04-1.49-1.33-1.41-.97.35-1.76-.16-2.38-1.53-.3-.78.07-1.27,1.09-1.49l1.61-.24c.67,0,1.09-.36,1.25-1.09.11-1.13.44-2.2,1.01-3.22.54-.75,1.09-.91,1.65-.48.32.27.48.86.48,1.77l-.16.97c-.35.97.07,1.41,1.25,1.33,1.4.08,2.31-.27,2.74-1.05.05-.62.05-1.23,0-1.85.03-.4.15-.82.36-1.25ZM267.37,51.16c-2.66-.51-4.72.64-6.2,3.46-.13.32-.19.55-.16.68.05.21.43.25,1.13.12,2.71-.54,5.49-.47,8.33.2.16-.11.24-.21.24-.32-.8-1.93-1.92-3.31-3.34-4.15ZM268.26,56.64c-.78-.32-1.61.01-2.5,1.01-.54.54-1.45,1.09-2.74,1.65-.62.7-.8,1.46-.56,2.29.56.19,1.3.12,2.21-.2l1.61-.48c.78-.16,1.35-.54,1.73-1.13.13-.38.27-1.06.4-2.05,0-.64-.05-1.01-.16-1.09ZM265.12,44.48c-1.21.13-1.7.86-1.49,2.17-.13.72,0,1.23.4,1.53.48.08,1.35-.05,2.62-.4.8-.46,1.19-1.38,1.17-2.78,0-.29-.15-.52-.44-.68-.7-.11-1.45-.05-2.25.16Z"/>
        <path class="cls-2" d="M294.74,36.67c.32-.46.75-.63,1.29-.52.78.19,1.19.54,1.25,1.05.51,1.45-.27,2.47-2.33,3.06-.89.38-1.49.97-1.81,1.77.08.21.52.24,1.33.08,1.26-.29,2.54-.47,3.82-.52.64,0,1.23-.11,1.77-.32,1.53-.89,2.64-.36,3.34,1.57.29,3.49-.58,6.76-2.62,9.82-.56,1.18-1.5,1.99-2.82,2.41-.54.11-1.07.27-1.61.48-.24.21-.47.74-.68,1.57-1.02,1.48-1.72,2.54-2.09,3.18-1.5,2.87-3.58,5.49-6.24,7.85-.91.86-1.21.83-.89-.08,1.58-3.09,3.22-6.17,4.91-9.26.32-.64.48-1.03.48-1.17-.11-.16-.21-.24-.32-.24-.32.05-.64-.15-.97-.6-1.07-2.04-1.83-4.19-2.25-6.44-.51-3.03-.48-5.37.08-7,.48-1.37,1.23-1.7,2.25-1.01.4.08.75-.21,1.05-.89.86-1.82,1.88-3.42,3.06-4.79ZM293.82,45.08c-1.34.24-2.09.91-2.25,2.01-.11,1.72,0,3.39.32,5.03.05,1.74.81,2.21,2.25,1.41.35-.46.48-.97.4-1.53,0-.59-.11-1.06-.32-1.41-.13-.11-.47-.24-1.01-.4-.35-.11-.54-.42-.56-.92.03-.19.54-.56,1.53-1.13.48-.4.64-1.06.48-1.97.35-.86.07-1.22-.84-1.09ZM297.96,56.35c.88-.03,1.45.38,1.69,1.21.03.38-.11,1.03-.4,1.97-.13.7-.2,1.29-.2,1.77.08.11.2.15.36.12.48-.62,1.13-1.77,1.93-3.46.72-1.66,1.66-1.7,2.82-.12,1.37.67,2.16,1.61,2.37,2.82.03.54-.01.94-.12,1.21-.4.7-.86.75-1.37.16-.32-.35-.75-.42-1.29-.2-.54.29-1.07.54-1.61.72-.54.16-1.07.36-1.61.6-1.85.38-2.19,1.18-1.01,2.41.86.72,1.93,1.07,3.22,1.05,4.43.19,8.38-.11,11.87-.89.8-.13,1.73-.59,2.78-1.37,1.18-.94,1.73-2.03,1.65-3.26.32-1.18.54-1.33.64-.44.11,1.07.55,2.05,1.33,2.94,1.02.75,1.09,1.56.2,2.42-.54.43-.91.91-1.13,1.45-.81,1.15-2.09,1.89-3.86,2.21-4.13,1.02-9.16,1.03-15.09.04-2.79-.89-4.39-2.58-4.79-5.07-.13-1.77-.09-3.69.12-5.76-.21-1.23.28-2.08,1.49-2.54ZM299.69,43.03c-.21-.29-.63-.2-1.25.28-1.18.51-1.65,1.25-1.41,2.21-.21.78.07,1.41.84,1.89.83.62.81,1.23-.08,1.85-.91.4-1.23,1.4-.97,2.98.13.4.38.54.72.4.64-.46,1.14-1.44,1.49-2.94.35-1.34.6-2.95.77-4.83.16-.89.12-1.5-.12-1.85ZM304.08,59.29c-.32-1.39-.97-1.22-1.93.52-.54.97-.27,1.34.8,1.13,1.4-.08,1.77-.63,1.13-1.65ZM312.85,36.83c.99-.27,1.82.23,2.5,1.49.13.51.12,1.18-.04,2.01-.24,2.98-.32,5.96-.24,8.94,0,1.37.64,1.78,1.93,1.25.99-.19,2,.21,3.02,1.21.64.75.6,1.35-.12,1.81-.81.46-1.88.76-3.22.93-.67-.05-1.17.32-1.49,1.13,0,3.22-.09,5.42-.28,6.6-.21.54-.55,1.07-1.01,1.61-.97.8-1.52,1.13-1.65.97-.83-2.15-1.13-4.61-.89-7.41.24-1.48-.27-1.97-1.53-1.49-.94.29-1.88.54-2.82.72-.8.21-1.6-.05-2.38-.81-1.42-1.37-1.33-2.2.28-2.5l4.83-1.25c1.39-.13,1.99-.84,1.77-2.13.08-3.78.09-7.58.04-11.39.11-.83.54-1.39,1.29-1.69ZM305.45,46.9c.97-.35,2-.21,3.1.4.7.32.97.8.8,1.45-.11.46-.58.76-1.41.93-.8.19-1.61.07-2.42-.36-.97-.7-1.42-1.15-1.37-1.37.05-.35.48-.7,1.29-1.05ZM305.61,41.62c1.26-.75,2.54-.63,3.82.36.91.78.86,1.52-.16,2.21-1.18.38-2.25.23-3.22-.44-1.23-.62-1.38-1.33-.44-2.13Z"/>
        <path class="cls-2" d="M333.06,40.38c.48-.59,1.14-.64,1.97-.16.91.62,1.29,1.34,1.13,2.17-.22,1.23-.34,2.52-.36,3.86.13.67.44.98.93.93.4-.08.91.11,1.53.56.72.7.8,1.62.24,2.78-.32.75-1.17,1.66-2.54,2.74-.19.32-.32.64-.4.97v3.1c.38.91,1.09.86,2.13-.16.72-.62,1.07-.48,1.05.4-.13.91-.59,1.93-1.37,3.06-2.63,3.33-4.92,5.42-6.88,6.28-.4.16-.94.16-1.61,0-.97-.38-1.38-1.07-1.25-2.09.56-1.77,1.84-3.15,3.82-4.15,1.13-.38,1.56-1.17,1.29-2.37.03-.89,0-1.83-.08-2.82-.19-.48-.63-.75-1.33-.81-.64-.19-1.18-.47-1.61-.84-1.85-1.53-1.83-2.74.08-3.62.54-.35,1.07-.66,1.61-.92.99-.27,1.4-.97,1.21-2.09-.11-1.23-.17-2.52-.2-3.86-.16-1.21.05-2.19.64-2.94ZM348.8,39.97c1.5-.38,2.32.38,2.46,2.25.05.86-.05,1.95-.32,3.26-.29.7-.16,1.13.4,1.29.78-.03,1.5-.31,2.17-.84.72-1.18,1.62-1.54,2.7-1.09.62.27.97.71,1.05,1.33.11,3.49-.36,6.71-1.41,9.66-.08.88-.86,1.68-2.33,2.37-.86.54-1.34.66-1.45.36-.29-.91-.8-1.39-1.53-1.45-.54-.19-.32-.42.64-.68.91-.35,1.41-.86,1.49-1.53.91-2.44,1.19-4.78.84-7-.54-.35-1.23.12-2.09,1.41l-1.53,1.45c-.32.54-.52,1.34-.6,2.42-.03,1.83-.43,3.44-1.21,4.83-.7.94-1.1,1.36-1.21,1.25-.13-.13-.24-.4-.32-.81-.11-1.74-.11-3.5,0-5.27-.24-.56-.79-.48-1.65.24-.8.59-1.22,1.25-1.25,1.97-.16,1.32-.22,2.74-.16,4.27,0,1.45.23,2.52.68,3.22.51.7,1.02,1.13,1.53,1.29.86.4,2.11.59,3.74.56,2.25.08,4.51-.15,6.76-.68,3.25-.64,4.88-2.46,4.91-5.43.21-.86.42-.75.6.32.03,1.1.55,2.15,1.57,3.14.72.72.59,1.5-.4,2.33-.3.48-.47.93-.52,1.33-.51.91-1.34,1.56-2.5,1.93-2.82.99-6.7,1.18-11.63.56-2.66-.38-4.72-1.61-6.2-3.7-.56-1.02-.9-2.09-1.01-3.22l-.16-5.47c-.05-.13-.2-.34-.44-.6-.99-.7-1.61-1.38-1.85-2.05-.11-.8.5-1.43,1.81-1.89.59-.35.86-.84.8-1.49-.19-1.18.27-1.99,1.37-2.42.72-.13,1.3.17,1.73.93.11.64.54.86,1.29.64.59-.32.93-.68,1.01-1.09,0-2.79.48-5.14,1.45-7.04.32-.46.58-.74.76-.84Z"/>
        <path class="cls-2" d="M385.26,36.47c.54-1.05,1.35-1.02,2.46.08.32.4.51.68.56.84,0,.3.21.54.64.72.35.08.98.01,1.89-.2,1.18-.27,2.11-.2,2.78.2.86.62,1.03,1.29.52,2.01-.24.48-.75.76-1.53.84-1.37.22-2.42.5-3.14.85-.13.16.12.47.77.93,2.28,1.07,2.96,2.59,2.05,4.55.05.43.33.6.84.52,2.15-.13,4.29-.38,6.44-.72.54-.11,1.07-.11,1.61,0,1.5.43,2.27,1.25,2.29,2.46.13.62-.15,1.07-.84,1.37-.54.3-1.44.32-2.7.08-1.18-.27-2.51-.32-3.99-.16-1.77-.03-2.36.6-1.77,1.89.89,3.78,1.14,8.17.76,13.16-.05,1.13-.36,2.2-.93,3.22-.27.56-.75.91-1.45,1.05-1.15.59-2.04,1.19-2.66,1.81-1.18.78-1.99.48-2.42-.89-.03-.48-.25-1.02-.68-1.61-.88-.91-.91-1.33-.08-1.25l1.21.08c.72-.05,1.31-.46,1.77-1.21.29-.7.44-1.61.44-2.74.4-4.27.48-8.14.24-11.63-.13-.99-.74-1.34-1.81-1.05-5.53.54-10.63,1.46-15.29,2.78-1.61.72-2.72.16-3.34-1.69,0-.78.6-1.39,1.81-1.85,1.13-.35,2.74-.7,4.83-1.05.99.05,1.73-.38,2.21-1.29.46-1.15.97-2.31,1.53-3.46-.11-.48-.48-.74-1.13-.76-.75-.16-1.44-.59-2.05-1.29-.59-.99-.15-1.7,1.33-2.13,1.34-.38,2.68-.7,4.02-.97.67-.11,1.14-.47,1.41-1.09.51-.8.97-1.61,1.37-2.42ZM385.22,53.94c.91-.35,1.68-.04,2.29.93.38.97.23,2.25-.44,3.86-.11.38-.04.91.2,1.61.03,1.23-.7,2.09-2.17,2.58-1.07.59-2.15,1.22-3.22,1.89l-.52.48c-.43.99-.97,1.29-1.61.89-.38-.27-.78-.72-1.21-1.37-1.18-2.36-1.87-4.51-2.05-6.44-.05-1.05.12-1.99.52-2.82.27-.46.66-.7,1.17-.72,2.01.3,4.36,0,7.04-.89ZM384.09,56.72c-.32-.48-.9-.42-1.73.2-1.66.78-2.42,1.66-2.25,2.66,0,1.5.44,2.32,1.33,2.46.51-.03,1.14-.47,1.89-1.33.83-1.23,1.09-2.56.76-3.99ZM387.15,44.4c-.99-1.07-1.81-1.01-2.46.2-.51.94-1.34,1.89-2.5,2.86-.86.56-1.27,1.09-1.25,1.57.11.11.48.13,1.13.08,2.23-.32,4.49-.6,6.8-.85.64.05,1.02-.16,1.13-.64-.22-.86-1.17-1.93-2.86-3.22Z"/>
        <path class="cls-2" d="M435.69,35.83c.75-.08,1.29-.05,1.61.08,1.77.78,2.43,1.79,1.97,3.02-.22.48-.58.64-1.09.48l-3.22-.24c-1.32-.24-1.81.11-1.49,1.05.32.56.16,1.07-.48,1.53-1.37.78-2.29,1.57-2.78,2.38-.16.38-.09.71.2,1.01,4.29,2.79,8.59,4.95,12.88,6.48.4.11.8.31,1.21.6.83.64.84.98.04,1.01-1.02.08-2.08.33-3.18.76-.27.13-.68.2-1.25.2-2.84-.27-6.06-1.56-9.66-3.86-.7-.35-1.13-.43-1.29-.24-.08.21-.12.56-.12,1.05.11,1.07,0,2.15-.32,3.22-.29.86-.42,1.34-.36,1.45.38.3.92.38,1.65.24,1.18-.05,2.32,0,3.42.16.54,0,1.05-.12,1.53-.36,1.13-.94,2.2-.79,3.22.44.54.99.59,2.52.16,4.59-.21,1.13-.7,2.38-1.45,3.74-.16.67-.12,1.07.12,1.21l2.98.04c1.61-.24,2.74.27,3.38,1.53.29.94.01,1.66-.85,2.17-.89.08-2.52.05-4.91-.08-7.19-.13-14.21.39-21.05,1.57-1.02.29-1.99.38-2.9.24-1.05-.43-1.65-1.13-1.81-2.09-.05-.24.12-.59.52-1.05,1.07-.64,3-1.06,5.8-1.25.38-.27.38-.75,0-1.45-1.05-2.31-1.61-4.45-1.69-6.44.48-2.01,1.45-2.41,2.9-1.21.75.21,1.41.16,1.97-.16,1.07-.4,2.15-.71,3.22-.93,1.29-.11,1.78-.63,1.49-1.57-.16-1.26-.25-3.17-.28-5.72-.46-.43-1.18-.16-2.17.81-3.43,2.76-7.19,5.27-11.27,7.53-1.02.48-1.29.32-.8-.48,3.65-3.7,7.39-7.41,11.23-11.11.99-.83.82-1.5-.52-2.01-.48-.27-.74-.54-.76-.8.05-.67.33-1.18.84-1.53.43-.29,1.05-.38,1.85-.24,1.31.67,2.25.91,2.82.72.16-.05.32-.15.48-.28l1.53-1.53c.32-.32.44-.63.36-.93-.13-.11-.6-.13-1.41-.08-1.69.24-3.31.7-4.87,1.37-1.88.64-3.49.82-4.83.52-.91-.24-1.56-.75-1.93-1.53-.11-.72.21-1.27.97-1.65,1.56-.64,3.7-1.07,6.44-1.29,3.94-.4,7.93-.76,11.95-1.09ZM425.95,59.37c-.48.19-.74.54-.76,1.05-.03,1.18.07,2.31.28,3.38.19.59.12,1.07-.2,1.45-.62.56-1.11.39-1.49-.52-.3-1.15-.42-2.4-.36-3.74-.27-.86-.97-1.01-2.09-.44-.67.24-1.02.7-1.05,1.37.13,1.07.31,2.15.52,3.22.08,1.21.6,1.72,1.57,1.53l3.22-.16c.56.11,1.07-.15,1.53-.76.8-1.8,1.18-3.81,1.13-6.04-.35-.54-1.11-.64-2.29-.32ZM433.8,57.96c-.27.19-.8.39-1.61.6-1.29.19-1.77.86-1.45,2.01-.16,1.07-.47,2.15-.93,3.22-.88,1.45-.84,2.27.12,2.46.78.05,1.45-.2,2.01-.76,1.07-.78,1.78-1.82,2.13-3.14.35-1.13.55-2.2.6-3.22.19-.7.07-1.13-.36-1.29-.13,0-.31.04-.52.12Z"/>
      </g>
    </g>
  </g>
</svg>