<?xml version="1.0" encoding="UTF-8"?>
<svg id="Layer_2" data-name="Layer 2" xmlns="http://www.w3.org/2000/svg" xmlns:xlink="http://www.w3.org/1999/xlink" viewBox="0 0 502.68 142.29">
  <defs>
    <style>
      .cls-1 {
        filter: url(#drop-shadow-2);
      }

      .cls-2 {
        fill: #fff;
      }
    </style>
    <filter id="drop-shadow-2" x="3.12" y="3.12" width="496.43" height="135.05" filterUnits="userSpaceOnUse">
      <feOffset dx="4.68" dy="4.68"/>
      <feGaussianBlur result="blur" stdDeviation="0"/>
      <feFlood flood-color="#000" flood-opacity="1"/>
      <feComposite in2="blur" operator="in"/>
      <feComposite in="SourceGraphic"/>
    </filter>
  </defs>
  <g id="Layer_3_-_Source" data-name="Layer 3 - Source">
    <g id="HKQC_Main_Visuals" data-name="HKQC Main Visuals">
      <g class="cls-1">
        <path class="cls-2" d="M19.61,4.12c0-.62.37-1,1-1h6.43c.75,0,1.06.37,1.06,1v47.95c0,.62-.31,1-1.06,1h-6.43c-.62,0-1-.37-1-1v-19.86h-7.99v19.86c0,.62-.37,1-1,1h-6.43c-.75,0-1.06-.37-1.06-1V4.12c0-.62.31-1,1.06-1h6.43c.62,0,1,.37,1,1v19.86h7.99V4.12Z"/>
        <path class="cls-2" d="M34.34,18.35c0-5.87,3.12-8.99,8.99-8.99h6.99c5.87,0,8.99,3.12,8.99,8.99v25.73c0,5.87-3.12,8.99-8.99,8.99h-6.99c-5.87,0-8.99-3.12-8.99-8.99v-25.73ZM48.95,45.02c1.62,0,2.5-.81,2.5-2.5v-22.6c0-1.62-.87-2.5-2.5-2.5h-4c-1.62,0-2.5.87-2.5,2.5v22.6c0,1.69.87,2.5,2.5,2.5h4Z"/>
        <path class="cls-2" d="M91.22,9.36c.62,0,1,.38,1,1v41.71c0,.62-.37,1-1,1h-4.93c-.56,0-.87-.25-1.12-.81l-11.74-23.85v23.66c0,.62-.31,1-1,1h-5.87c-.62,0-1-.37-1-1V10.36c0-.62.37-1,1-1h4.93c.56,0,.87.25,1.12.81l11.74,23.85V10.36c0-.62.31-1,1-1h5.87Z"/>
        <path class="cls-2" d="M98.46,18.35c0-5.87,3.12-8.99,8.99-8.99h6.99c5.81,0,8.99,3.12,8.99,8.99v4.62c0,.62-.38,1-1,1h-5.87c-.69,0-1-.37-1-1v-3.06c0-1.62-.87-2.5-2.5-2.5h-4c-1.69,0-2.5.87-2.5,2.5v22.6c0,1.69.87,2.5,2.5,2.5h4c1.62,0,2.5-.81,2.5-2.5v-5.43h-3.25c-.69,0-1-.37-1-1v-6.24c0-.69.31-1,1-1h10.12c.62,0,1,.31,1,1v14.24c0,5.87-3.18,8.99-8.99,8.99h-6.99c-5.87,0-8.99-3.12-8.99-8.99v-25.73Z"/>
        <path class="cls-2" d="M165.4,53.07c-.75,0-1.19-.31-1.44-.94l-7.87-18.54-2.31,4.43v13.8c0,.81-.44,1.25-1.25,1.25h-5.99c-.81,0-1.25-.44-1.25-1.25V4.37c0-.81.44-1.25,1.25-1.25h5.99c.81,0,1.25.44,1.25,1.25v19.36l9.62-19.67c.31-.62.75-.94,1.44-.94h6.56c.94,0,1.31.62.87,1.5l-10.61,21.79,11.3,25.23c.44.81.06,1.44-.94,1.44h-6.62Z"/>
        <path class="cls-2" d="M177.51,18.35c0-5.87,3.12-8.99,8.99-8.99h6.99c5.87,0,8.99,3.12,8.99,8.99v25.73c0,5.87-3.12,8.99-8.99,8.99h-6.99c-5.87,0-8.99-3.12-8.99-8.99v-25.73ZM192.12,45.02c1.62,0,2.5-.81,2.5-2.5v-22.6c0-1.62-.87-2.5-2.5-2.5h-4c-1.62,0-2.5.87-2.5,2.5v22.6c0,1.69.87,2.5,2.5,2.5h4Z"/>
        <path class="cls-2" d="M234.39,9.36c.62,0,1,.38,1,1v41.71c0,.62-.37,1-1,1h-4.93c-.56,0-.87-.25-1.12-.81l-11.74-23.85v23.66c0,.62-.31,1-1,1h-5.87c-.62,0-1-.37-1-1V10.36c0-.62.37-1,1-1h4.93c.56,0,.87.25,1.12.81l11.74,23.85V10.36c0-.62.31-1,1-1h5.87Z"/>
        <path class="cls-2" d="M241.63,18.35c0-5.87,3.12-8.99,8.99-8.99h6.99c5.81,0,8.99,3.12,8.99,8.99v4.62c0,.62-.37,1-1,1h-5.87c-.69,0-1-.37-1-1v-3.06c0-1.62-.87-2.5-2.5-2.5h-4c-1.69,0-2.5.87-2.5,2.5v22.6c0,1.69.87,2.5,2.5,2.5h4c1.62,0,2.5-.81,2.5-2.5v-5.43h-3.25c-.69,0-1-.37-1-1v-6.24c0-.69.31-1,1-1h10.12c.62,0,1,.31,1,1v14.24c0,5.87-3.18,8.99-8.99,8.99h-6.99c-5.87,0-8.99-3.12-8.99-8.99v-25.73Z"/>
        <path class="cls-2" d="M28.1,119c0,3.93-1.37,6.62-4.06,7.99l2.5,5.37c.31.69-.19,1.12-.87,1.12h-6.49c-.62,0-.81-.37-1.06-.87l-2.12-4.62h-3.87c-5.87,0-8.99-3.12-8.99-8.99v-31.97c0-5.87,3.12-8.99,8.99-8.99h6.99c5.87,0,8.99,3.12,8.99,8.99v31.97ZM11.61,117.26c0,1.69.87,2.5,2.5,2.5h3.25c1.62,0,2.5-.81,2.5-2.5v-28.47c0-1.62-.87-2.5-2.5-2.5h-3.25c-1.62,0-2.5.87-2.5,2.5v28.47Z"/>
        <path class="cls-2" d="M58.07,84.29c.69,0,1.25.56,1.25,1.25v33.47c0,5.87-3.12,8.99-8.99,8.99h-6.99c-5.87,0-8.99-3.12-8.99-8.99v-33.47c0-.69.56-1.25,1.25-1.25h5.99c.69,0,1.25.56,1.25,1.25v31.72c0,1.69.87,2.5,2.5,2.5h3.25c1.62,0,2.5-.81,2.5-2.5v-31.72c0-.69.56-1.25,1.25-1.25h5.74Z"/>
        <path class="cls-2" d="M87.73,128c-.56,0-.87-.31-1-.87l-2-7.87h-11.74l-1.94,7.87c-.12.56-.44.87-1,.87h-6.12c-.69,0-1-.37-.81-1.06l10.36-41.77c.12-.62.5-.87,1.06-.87h8.68c.56,0,.94.25,1.06.87l10.36,41.77c.19.69-.12,1.06-.87,1.06h-6.06ZM78.86,95.03l-3.93,16.98h7.87l-3.93-16.98Z"/>
        <path class="cls-2" d="M98.46,85.29c0-.62.31-1,1-1h14.99c5.87,0,8.99,3.18,8.99,9.05v25.66c0,5.87-3.12,8.99-8.99,8.99h-14.99c-.69,0-1-.31-1-1v-41.71ZM112.7,119.75c1.62,0,2.5-.81,2.5-2.5v-22.17c0-1.69-.87-2.56-2.5-2.56h-5.74v27.22h5.74Z"/>
        <path class="cls-2" d="M154.72,101.71c0,2.31-1.69,4.06-3.93,4.43v.12c2.25.37,3.93,2.12,3.93,4.43v8.3c0,5.87-3.18,8.99-9.05,8.99h-14.99c-.62,0-1-.37-1-1v-41.71c0-.69.37-1,1-1h14.99c5.87,0,9.05,3.12,9.05,8.99v8.43ZM146.79,94.65c0-1.62-.81-2.5-2.5-2.5h-6.87v9.93h6.87c1.62,0,2.5-.87,2.5-2.44v-5ZM146.79,112.82c0-1.62-.81-2.5-2.5-2.5h-6.87v9.8h6.87c1.62,0,2.5-.81,2.5-2.5v-4.81Z"/>
        <path class="cls-2" d="M183.13,128c-.56,0-.87-.31-1-.87l-2-7.87h-11.74l-1.94,7.87c-.12.56-.44.87-1,.87h-6.12c-.69,0-1-.37-.81-1.06l10.36-41.77c.12-.62.5-.87,1.06-.87h8.68c.56,0,.94.25,1.06.87l10.36,41.77c.19.69-.12,1.06-.87,1.06h-6.06ZM174.26,95.03l-3.93,16.98h7.87l-3.93-16.98Z"/>
        <path class="cls-2" d="M203.61,119.75h12.36c.69,0,1,.38,1,1v6.24c0,.69-.31,1-1,1h-19.86c-.62,0-1-.31-1-1v-41.71c0-.62.37-1,1-1h6.49c.69,0,1,.37,1,1v34.47Z"/>
        <path class="cls-2" d="M231.7,119.75h12.36c.69,0,1,.38,1,1v6.24c0,.69-.31,1-1,1h-19.86c-.62,0-1-.31-1-1v-41.71c0-.62.37-1,1-1h6.49c.69,0,1,.37,1,1v34.47Z"/>
        <path class="cls-2" d="M291.96,93.78c0,.62-.38,1-1,1h-6.24c-.69,0-1-.37-1-1v-5c0-1.62-.87-2.5-2.5-2.5h-3.25c-1.69,0-2.5.87-2.5,2.5v28.47c0,1.69.87,2.5,2.5,2.5h3.25c1.62,0,2.5-.81,2.5-2.5v-5c0-.62.31-1,1-1h6.24c.62,0,1,.37,1,1v6.74c0,5.87-3.18,8.99-8.99,8.99h-6.99c-5.87,0-9.05-3.12-9.05-8.99v-31.97c0-5.87,3.18-8.99,9.05-8.99h6.99c5.81,0,8.99,3.12,8.99,8.99v6.74Z"/>
        <path class="cls-2" d="M321.92,84.29c.69,0,1.25.56,1.25,1.25v33.47c0,5.87-3.12,8.99-8.99,8.99h-6.99c-5.87,0-8.99-3.12-8.99-8.99v-33.47c0-.69.56-1.25,1.25-1.25h5.99c.69,0,1.25.56,1.25,1.25v31.72c0,1.69.87,2.5,2.5,2.5h3.25c1.62,0,2.5-.81,2.5-2.5v-31.72c0-.69.56-1.25,1.25-1.25h5.74Z"/>
        <path class="cls-2" d="M329.42,85.29c0-.62.37-1,1-1h14.99c5.87,0,8.99,3.12,8.99,8.99v12.24c0,5.81-3.12,8.93-8.99,8.99l-7.87.06v12.49c0,.62-.31,1-1,1l-6.12-.06c-.62,0-1-.37-1-1v-41.71ZM343.78,106.45c1.69,0,2.5-.94,2.5-2.5v-9.12c0-1.62-.81-2.5-2.5-2.5l-6.24.06v14.11l6.24-.06Z"/>
        <path class="cls-2" d="M385.61,111.57c-.62.37-.87.81-.87,1.5v5.43c0,.81.44,1.25,1.25,1.25h6.74v-2.56c0-.81.44-1.25,1.25-1.25h5.99c.81,0,1.25.44,1.25,1.25v9.55c0,.81-.44,1.25-1.25,1.25h-22.48c-.81,0-1.25-.44-1.25-1.25v-18.42c0-1.19.44-1.69,1.62-2.31l14.86-7.99v-9.24c0-1.62-.94-2.5-2.5-2.5h-3c-1.69,0-2.5.87-2.5,2.5v4.87c0,.62-.37,1-1,1h-6.49c-.69,0-1-.37-1-1v-6.62c0-5.87,3.12-8.99,8.99-8.99h6.99c5.81,0,8.99,3.12,8.99,8.99v14.74c0,1.19-.5,1.69-1.69,2.31l-13.92,7.49Z"/>
        <path class="cls-2" d="M407.46,87.04c0-5.87,3.12-8.99,8.99-8.99h6.99c5.87,0,8.99,3.12,8.99,8.99v31.97c0,5.87-3.12,8.99-8.99,8.99h-6.99c-5.87,0-8.99-3.12-8.99-8.99v-31.97ZM421.88,119.94c1.62,0,2.5-.81,2.5-2.5v-28.85c0-1.62-.87-2.5-2.5-2.5h-3.62c-1.62,0-2.5.87-2.5,2.5v28.85c0,1.69.87,2.5,2.5,2.5h3.62Z"/>
        <path class="cls-2" d="M448.05,111.57c-.62.37-.87.81-.87,1.5v5.43c0,.81.44,1.25,1.25,1.25h6.74v-2.56c0-.81.44-1.25,1.25-1.25h5.99c.81,0,1.25.44,1.25,1.25v9.55c0,.81-.44,1.25-1.25,1.25h-22.48c-.81,0-1.25-.44-1.25-1.25v-18.42c0-1.19.44-1.69,1.62-2.31l14.86-7.99v-9.24c0-1.62-.94-2.5-2.5-2.5h-3c-1.69,0-2.5.87-2.5,2.5v4.87c0,.62-.37,1-1,1h-6.49c-.69,0-1-.37-1-1v-6.62c0-5.87,3.12-8.99,8.99-8.99h6.99c5.81,0,8.99,3.12,8.99,8.99v14.74c0,1.19-.5,1.69-1.69,2.31l-13.92,7.49Z"/>
        <path class="cls-2" d="M486.13,97.34c5.68,0,8.74,3.06,8.74,8.74v13.17c0,5.68-3.06,8.74-8.74,8.74h-7.49c-5.68,0-8.74-3.06-8.74-8.74v-16.05c0-1.19.19-2,.62-3.12l8.87-21.1c.25-.62.69-.94,1.44-.94h6.49c.94,0,1.31.56.94,1.44l-7.55,17.86h5.43ZM484.13,119.75c1.62,0,2.5-.87,2.5-2.5v-9.18c0-1.62-.87-2.5-2.5-2.5h-3.5c-1.62,0-2.5.87-2.5,2.5v9.18c0,1.62.87,2.5,2.5,2.5h3.5Z"/>
      </g>
    </g>
  </g>
</svg>