<?xml version="1.0" encoding="UTF-8"?>
<svg id="Layer_2" data-name="Layer 2" xmlns="http://www.w3.org/2000/svg" xmlns:xlink="http://www.w3.org/1999/xlink" viewBox="0 0 443.81 152.61">
  <defs>
    <style>
      .cls-1 {
        filter: url(#drop-shadow-2);
      }

      .cls-2 {
        fill: #fff;
      }
    </style>
    <filter id="drop-shadow-2" x="4.7" y="2.42" width="415.72" height="119.94" filterUnits="userSpaceOnUse">
      <feOffset dx="4.68" dy="4.68"/>
      <feGaussianBlur result="blur" stdDeviation="0"/>
      <feFlood flood-color="#000" flood-opacity="1"/>
      <feComposite in2="blur" operator="in"/>
      <feComposite in="SourceGraphic"/>
    </filter>
  </defs>
  <g id="Layer_3_-_Source" data-name="Layer 3 - Source">
    <g id="HKQC_Main_Visuals" data-name="HKQC Main Visuals">
      <g class="cls-1">
        <path class="cls-2" d="M35.67,29.59c2.01-.18,3.61.69,4.8,2.61.82,1.28.69,2.33-.41,3.16-.64.37-1.81.43-3.52.18-5.52-.76-11.04-.66-16.55.32-2.62.4-5.67,1.4-9.15,3.02-2.87.4-4.63-1.08-5.3-4.44.15-.4.44-.73.87-1.01,1.04-.52,2.26-.91,3.66-1.19,4.15-.67,9.02-1.33,14.63-1.97l10.98-.69ZM25.84,10.06c1.62-.43,3.06.31,4.34,2.2.88,1.37.43,2.38-1.37,3.02-4.51,1.92-8.23,2.94-11.16,3.06-2.13-.61-3.47-2.07-4.02-4.39-.15-1.25.37-1.88,1.55-1.88,3.05-.06,6.6-.73,10.66-2.01Z"/>
        <path class="cls-2" d="M72.53,2.61c1.95-.24,3.35-.12,4.21.37.73,1.31.26,2.21-1.42,2.7l-2.06.27c-.3.18-.46.58-.46,1.19-.18,1.22.43,1.65,1.83,1.28,2.23-.15,4.5-.2,6.81-.14.97.18,1.95-.11,2.93-.87.49-.27,1.1,0,1.83.82,1.1,1.22,1.77,2.44,2.01,3.66.09.43-.06.81-.46,1.14-.7.34-1.83.37-3.38.09-.85-.4-1.77-.43-2.74-.09-.61.24-1.21.64-1.78,1.19-.31.4-.92.43-1.83.09l-1.83-.32c-.76-.15-1.16-.47-1.19-.96.37-.52,1.05-.92,2.06-1.19,1.01-.18,1.84,0,2.52.55.76.88,1.66.5,2.7-1.14.34-.46.49-.84.46-1.14-.18-.33-.61-.41-1.28-.23-2.5.03-5.24.2-8.23.5-.49.27-.73.62-.73,1.05.33,3.54-.06,6.1-1.19,7.68-.12.27,0,.55.37.82,2.87.88,5.85,2.51,8.96,4.89,1.28.85,2.5,1.53,3.66,2.01,1.98,1.01,3.96,2.07,5.94,3.2.85.7.82,1.04-.09,1.01-1.53-.18-2.91-.05-4.16.41-.88.27-1.49.38-1.83.32-2.93-.73-6.57-3.03-10.93-6.91-1.16-.79-2.38-1.33-3.66-1.6-.79-.24-1.4-.23-1.83.05-2.13,1.53-4.56,3.43-7.27,5.72-2.56,2.17-5.3,4.08-8.23,5.76-1.19.67-1.54.52-1.05-.46,1.46-2.01,3.43-4.25,5.9-6.72,2.13-1.86,4.27-3.61,6.4-5.26.7-.73.67-1.24-.09-1.51l-3.34-.59c-.4.03-.72-.18-.96-.64.03-.15.24-.43.64-.82.92-.61,1.84-.84,2.79-.69,1.22.06,2.03.56,2.42,1.51.09.61.21.93.37.96.4.03.98-.23,1.74-.78.91-.27,1.34-.73,1.28-1.37-.24-1.16-.3-2.91-.18-5.26.4-1.43-.12-2.12-1.55-2.06-3.11.4-6.16,1.24-9.15,2.52-.76.64-1.08,1.83-.96,3.57.15.98-.17,1.89-.96,2.74-.85.79-1.36,1.19-1.51,1.19-.46-.3-.79-.96-1.01-1.97-.25-2.71.06-5.41.91-8.09.43-1.01,1.19-1.22,2.29-.64.61.15,1.22.2,1.83.14,2.8-.55,5.85-1.04,9.15-1.46,1.01-.15,1.36-.66,1.05-1.51-.27-.64-.78-.73-1.51-.27-2.26.52-3.42-.53-3.48-3.16.58-.61,1.23-.91,1.97-.91l7.32-.64ZM60.64,14.18c.79-.52,2.07-.55,3.84-.09,1.13.88,1.3,1.65.5,2.29-.76.27-2.13.12-4.12-.46-1.01-.4-1.08-.98-.23-1.74ZM73.58,29.36c.7-.21,1.71.25,3.02,1.37,1.68,1.13,1.66,2.26-.05,3.38-1.22.98-2.44,1.89-3.66,2.74-1.25.73-1.45,1.58-.59,2.56,1.52,1.43,1.4,2.94-.37,4.53-.88.67-1.69.3-2.42-1.1-.37-.61-.85-1.22-1.46-1.83-1.25-.98-1.88-1.94-1.88-2.88.55-.7,1.65-.78,3.29-.23.73.18,1.29-.06,1.69-.73.7-1.43,1.11-2.74,1.24-3.93-.12-.43-.43-.59-.92-.5-.3.06-.76.23-1.37.5-1.22.55-2.44,1.2-3.66,1.97-1.19.64-2.3.79-3.34.46-.92-.4-1.21-1.04-.87-1.92.88-1.31,2.01-2,3.38-2.06,1.83-.18,3.66-.3,5.49-.37.73.03,1.3-.3,1.69-1.01.24-.4.5-.72.78-.96ZM66.72,26.2c1.43-1.16,3.06-.85,4.89.92.55,1.01.26,1.72-.87,2.15-.92.34-2,.12-3.25-.64-1.07-.94-1.54-1.54-1.42-1.78.18-.24.4-.46.64-.64ZM75.82,16.51c.7-.4,1.54-.55,2.51-.46,1.25.15,1.84.79,1.78,1.92-.03.67-.53.98-1.51.92-.46-.03-.91-.14-1.37-.32-1.13-.12-1.88-.41-2.24-.87.09-.52.37-.91.82-1.19Z"/>
        <path class="cls-2" d="M129.32,29.59c2.01-.18,3.61.69,4.8,2.61.82,1.28.69,2.33-.41,3.16-.64.37-1.81.43-3.52.18-5.52-.76-11.04-.66-16.55.32-2.62.4-5.67,1.4-9.15,3.02-2.87.4-4.63-1.08-5.3-4.44.15-.4.44-.73.87-1.01,1.04-.52,2.26-.91,3.66-1.19,4.15-.67,9.02-1.33,14.63-1.97l10.98-.69ZM119.49,10.06c1.62-.43,3.06.31,4.34,2.2.88,1.37.43,2.38-1.37,3.02-4.51,1.92-8.23,2.94-11.16,3.06-2.13-.61-3.47-2.07-4.02-4.39-.15-1.25.37-1.88,1.55-1.88,3.05-.06,6.6-.73,10.66-2.01Z"/>
        <path class="cls-2" d="M158.73,8.83c-.24-1.83.56-2.5,2.42-2.01,3.02,1.04,4.95,2.99,5.81,5.85-.03.61.26,1.1.87,1.46,2.53.06,5.32-.06,8.37-.37,1.22-.24,2.45-.12,3.7.37,1.28.55,2.09,1.48,2.42,2.79.06,1.34-.41,2.03-1.42,2.06-1.25.03-2.81-.06-4.67-.27-2.71-.15-5.44-.2-8.19-.14-1.1-.12-1.94.37-2.51,1.46-.7,1.16-1.57,1.54-2.61,1.14-.34-.18-.61-.47-.82-.87-.15-.46-.7-.69-1.65-.69-1.1.18-2.21.43-3.34.73-2.26.82-4.7,1.36-7.32,1.6-1.28.27-2.5.02-3.66-.78-1.77-1.31-2.13-2.48-1.1-3.52.64-.79,1.54-1.27,2.7-1.42,3.54-.73,7.62-1.2,12.25-1.42,1.8-.06,1.97-.84.5-2.33-.85-1.1-1.45-2.32-1.78-3.66ZM156.21,25.06c.94-.43,1.78-.18,2.51.73,1.04,1.43.3,3.05-2.2,4.85-2.68,2.53-4.39,4.33-5.12,5.4-.73.73-1.4,1.28-2.01,1.65-.61.18-.88-.17-.82-1.05.73-3.17,2.64-6.46,5.72-9.88.76-.82,1.4-1.39,1.92-1.69ZM168.15,25.29c.49-.98,1.4-1.08,2.74-.32,4.33,1.98,6.65,5.18,6.95,9.6.24,1.1.08,2.01-.5,2.74-1.31,1.95-2.79,2.13-4.44.55-.43-.61-.7-1.22-.82-1.83-.24-2.44-1.21-4.88-2.88-7.32-.67-1.28-1.02-2.42-1.05-3.43Z"/>
        <path class="cls-2" d="M204.5,2.97c1.34-.94,2.45-.67,3.34.82.15.67.49,1.16,1.01,1.46.61.12,1.29.08,2.06-.14l3.66-.73c1.8-.49,3.17-.72,4.12-.69,2.19.06,3.06,1.1,2.61,3.11-.4.85-.9,1.34-1.51,1.46-.92.27-1.83.49-2.74.64-1.52,0-2.01.85-1.46,2.56.3.67.92.85,1.83.55.97-.12,1.9.26,2.79,1.14,1.01,1.59.37,2.88-1.92,3.89-1.46.24-2.42.67-2.88,1.28-.12.98-.14,1.95-.05,2.93-.15,1.74.5,2.38,1.97,1.92,2.71-.46,5.3-.78,7.77-.96.46-.03,1.07.12,1.83.46,1.43.7,2.15,1.89,2.15,3.57-.43.79-1.21,1.11-2.33.96-2.74.15-5.79.43-9.15.82-1.68,0-2.36.75-2.06,2.24.33,4.51-.18,7.93-1.55,10.24-.52.61-.99,1.22-1.42,1.83-.7,1.25-1.22,1.39-1.55.41-.27-1.04-.41-2.32-.41-3.84l-.27-8.96c-.34-.4-.85-.49-1.55-.27l-7.32,1.6c-1.71.7-3.54,1.04-5.49,1.01-1.86-.27-2.91-1.4-3.16-3.38-.03-.76.26-1.33.87-1.69,1.46-.58,3.54-1.08,6.22-1.51,1.43.03,1.78-.66,1.05-2.06-.7-1.49-.59-2.62.32-3.38.88-.27,1.84.02,2.88.87.18.31.37.92.55,1.83.3,1.68,1.11,2.27,2.42,1.78l1.28-.23c1.68-.06,2.33-.85,1.97-2.38v-1.37c0-.79-.14-1.31-.41-1.55-.43-.21-1.1-.29-2.01-.23-.67-.06-1.28-.23-1.83-.5-.85-.3-1.27-.78-1.23-1.42.73-1.71,2.09-2.74,4.07-3.11,1.16-.4,1.6-1.08,1.33-2.06.09-1.46-.55-1.95-1.92-1.46-.92.15-1.95-.29-3.11-1.33-.64,0-1.63.61-2.97,1.83-.98.7-1.89,1.23-2.74,1.6-.98.34-1.52.47-1.65.41-.09-.09.02-.59.32-1.51,1.25-3.14,3.35-5.96,6.31-8.46Z"/>
        <path class="cls-2" d="M37.52,56.53c1.46-.91,2.65-.89,3.57.07,2.79,1.69,3.57,3.5,2.33,5.42-1.05.73-2.74,1.1-5.08,1.1-1.78-.46-2.63.37-2.54,2.47-.05,2.56,1.01,3.22,3.16,1.99,2.24-.78,4.6-.89,7.07-.34,2.29.78,2.4,2.2.34,4.25l-5.9,1.44c-1.1.05-1.74.46-1.92,1.23.32.64,1.28,1.3,2.88,1.99,3.11,1.88,6.77,4.67,10.97,8.37,4.57,2.52,8.69,5.21,12.35,8.09,1.19,1.14,1.1,1.67-.27,1.58-2.74-.37-5.49.02-8.23,1.17-1.28.14-3.11-.73-5.49-2.61-3.7-2.97-7.02-6.4-9.95-10.29l-2.54-2.61c-.78-.82-1.56-1.26-2.33-1.3-.73.23-1.1.66-1.1,1.3.18,3.57-.16,6.15-1.03,7.75-.64.92-.98,1.46-1.03,1.65.05.64.75.92,2.13.82,1,.05,1.92-.16,2.74-.62,1.28-1,2.31-1.62,3.09-1.85.69-.04,1.49.46,2.4,1.51,1.55,1.51,2.56,3.32,3.02,5.42.96,4.76,1.12,9.51.48,14.27-1.46,4.67-4.48,7.52-9.05,8.58-.64-.14-.92-.62-.82-1.44.05-1.33-.71-2.26-2.26-2.81-2.19-.46-4.21-.37-6.04.27-1.37.14-2.38.84-3.02,2.13-.46.87-.98,1.12-1.58.75-1.55-1.24-2.56-3.09-3.02-5.56-.64-2.38-.64-7.02,0-13.92.27-3.02.85-5.19,1.71-6.52.59-1.23,1.55-1.26,2.88-.07.91.41,1.92.55,3.02.41,1.55-.32,2.1-1.17,1.65-2.54-.32-2.06-.48-4.14-.48-6.24-.92-.82-2.1-.34-3.57,1.44-7.96,7.64-14.61,13.08-19.96,16.33-1.42.82-1.76.48-1.03-1.03,3.7-6.08,9.42-12.32,17.15-18.73,1.55-1.19,2.38-2.17,2.47-2.95-.64-.46-1.65-.27-3.02.55-2.19,1.1-3.75,1.58-4.66,1.44-1.92-1.05-2.93-2.54-3.02-4.46.32-1.33,1.49-1.99,3.5-1.99,2.74-.41,5.49-.94,8.23-1.58,1.69-.23,2.86-.62,3.5-1.17.55-.64.94-2.08,1.17-4.32-.18-.96-.92-1.19-2.2-.69-2.06.5-4.18.64-6.38.41-1.37-.23-1.4-.92-.07-2.06,1.51-1.14,3.11-2.01,4.8-2.61,1.83-.59,3.66-1.1,5.49-1.51,1.83-.69,3.66-1.49,5.49-2.4ZM35.6,92.48c-2.19.27-4.46,1.01-6.79,2.2-2.42.92-3.38,2.38-2.88,4.39.23.27,1.05.32,2.47.14,1.23-.41,2.54-.73,3.91-.96,1.97.09,3.22,1.01,3.77,2.74.04.46-.18.85-.69,1.17-.5.32-1.56.57-3.16.75-1.97.37-3.93.82-5.9,1.37-.64.6-.89,1.67-.75,3.22.09,1.87,1.1,2.47,3.02,1.78,2.47-.46,5.42-.71,8.85-.75.59-.14,1-.3,1.23-.48.32-.18.5-.96.55-2.33l.21-10.97c-.64-1.97-1.92-2.72-3.84-2.26Z"/>
        <path class="cls-2" d="M79.23,76.84c2.24-.82,4.6.11,7.06,2.81.59,1.1.46,2.19-.41,3.29-.59,1.28-1.35,1.56-2.26.82-1.46-1.6-2.65-2.63-3.57-3.09-1.46-.73-1.99-1.74-1.58-3.02.18-.41.43-.69.75-.82ZM84.71,94.47c.91-1.37,1.39-1.9,1.44-1.58l-.89,3.57c-.87,3.98-.8,6.88.21,8.71.96,1.33,1.49,2.38,1.58,3.16-.05.87-.27,1.65-.69,2.33-.87,1.87-2.1,2.4-3.7,1.58-1.19-.73-2.1-2.01-2.74-3.84-.5-1.37-.73-3.18-.69-5.42.09-.91.43-1.85,1.03-2.81,1.19-1.01,2.68-2.9,4.46-5.69ZM82.45,61.06c.91-.96,2.22-1.26,3.91-.89,1.87.18,3.68,1.28,5.42,3.29,1.51,2.19,1.37,4.21-.41,6.04-1.37.92-3.02.21-4.94-2.13-.59-.92-1.71-1.92-3.36-3.02-1.05-1.28-1.26-2.38-.62-3.29ZM114.9,57.36c.73-2.7,2.22-2.83,4.46-.41.69,1.01,1,2.01.96,3.02,0,1.14.53,2.15,1.58,3.02,1.97,1.14,2.49,2.47,1.58,3.98-.55,1.01-1.62,1.58-3.22,1.71-1.37.46-2.17,1.65-2.4,3.57-.82,1.88-.18,2.77,1.92,2.67,3.66-.46,6.4-.64,8.23-.55,1.69.41,2.86,1.4,3.5,2.95.96,2.61-.07,3.77-3.09,3.5-1.97-.18-3.93-.27-5.9-.27-1.33-.23-2.17,0-2.54.69.09.59.37,1.1.82,1.51,4.89,5.03,9.17,9.15,12.83,12.35,1.28,1.23,1.94,1.97,1.99,2.2-.14.14-.89.18-2.26.14-1.69-.23-3.02-.09-3.98.41-2.2,1.01-4.37-.16-6.52-3.5-1.05-2.06-2.08-2.99-3.09-2.81-.14.18-.3.73-.48,1.65-.23,1.6-.92,3.32-2.06,5.14-.09.46-.02.92.21,1.37,0,.46-.46.92-1.37,1.37-3.84,2.1-7.5,3.22-10.97,3.36-2.1.23-2.74,1.21-1.92,2.95.87,1.51,2.13,2.4,3.77,2.68,5.76.69,11.07.27,15.91-1.24,2.2-.59,3.47-1.81,3.84-3.63.46-1.46.89-1.55,1.3-.27.46,1.05,1.3,1.92,2.54,2.61.64.37.98.66,1.03.89-.78,1-1.49,2.1-2.13,3.29-.64.82-1.46,1.49-2.47,1.99-4.39,1.37-9.31,2.01-14.75,1.92-3.75.18-6.84-.27-9.26-1.37-2.38-1.28-3.66-3.38-3.84-6.31-.41-3.61-.25-7.29.48-11.04.82-1.97.66-3.36-.48-4.18-.59-.04-1.26.57-1.99,1.85-1.46,2.24-3.57,4.78-6.31,7.61-1.37,1.28-1.76,1.19-1.17-.27,2.33-5.53,5.69-11.16,10.08-16.87.04-.69-.34-.92-1.17-.69-.69.27-1.37.62-2.06,1.03-1.97.87-3.54,1.01-4.73.41-2.42-1.55-2.72-3.11-.89-4.66,1.46-1.14,4.21-2.08,8.23-2.81,1.05-.14,1.85-.43,2.4-.89.59-.64.75-1.9.48-3.77.69-1.74-.07-2.54-2.26-2.4-1.65.59-3-.27-4.05-2.61-.5-1.33.11-2.17,1.85-2.54l2.74-.41c1.14,0,1.85-.62,2.13-1.85.18-1.92.75-3.75,1.71-5.49.91-1.28,1.85-1.55,2.81-.82.55.46.82,1.46.82,3.02l-.27,1.65c-.59,1.65.11,2.4,2.13,2.26,2.38.14,3.93-.46,4.66-1.78.09-1.05.09-2.1,0-3.16.04-.69.25-1.39.62-2.13ZM112.77,81.5c-4.53-.87-8.05,1.1-10.56,5.9-.23.55-.32.94-.27,1.17.09.37.73.44,1.92.21,4.62-.91,9.35-.8,14.2.34.27-.18.41-.37.41-.55-1.37-3.29-3.27-5.65-5.69-7.07ZM114.28,90.83c-1.33-.55-2.74.02-4.25,1.71-.92.92-2.47,1.85-4.66,2.81-1.05,1.19-1.37,2.49-.96,3.91.96.32,2.22.21,3.77-.34l2.74-.82c1.33-.27,2.31-.92,2.95-1.92.23-.64.46-1.81.69-3.5,0-1.1-.09-1.71-.27-1.85ZM108.93,70.11c-2.06.23-2.9,1.46-2.54,3.7-.23,1.24,0,2.1.69,2.61.82.14,2.31-.09,4.46-.69,1.37-.78,2.03-2.35,1.99-4.73,0-.5-.25-.89-.75-1.17-1.19-.18-2.47-.09-3.84.27Z"/>
        <path class="cls-2" d="M159.42,56.81c.55-.78,1.28-1.07,2.19-.89,1.33.32,2.03.92,2.13,1.78.87,2.47-.46,4.21-3.98,5.21-1.51.64-2.54,1.65-3.09,3.02.14.37.89.41,2.26.14,2.15-.5,4.32-.8,6.52-.89,1.1,0,2.1-.18,3.02-.55,2.61-1.51,4.5-.62,5.69,2.67.5,5.95-.98,11.52-4.46,16.74-.96,2.01-2.56,3.38-4.8,4.12-.92.18-1.83.46-2.74.82-.41.37-.8,1.26-1.17,2.67-1.74,2.52-2.93,4.32-3.57,5.42-2.56,4.89-6.11,9.35-10.63,13.38-1.55,1.46-2.06,1.42-1.51-.14,2.7-5.26,5.49-10.52,8.37-15.78.55-1.1.82-1.76.82-1.99-.18-.27-.37-.41-.55-.41-.55.09-1.1-.25-1.65-1.03-1.83-3.47-3.11-7.13-3.84-10.98-.87-5.17-.82-9.15.14-11.94.82-2.33,2.1-2.9,3.84-1.71.69.14,1.28-.37,1.78-1.51,1.46-3.11,3.2-5.83,5.21-8.16ZM157.84,71.14c-2.29.41-3.57,1.55-3.84,3.43-.18,2.93,0,5.79.55,8.57.09,2.97,1.37,3.77,3.84,2.4.59-.78.82-1.65.69-2.61,0-1-.18-1.81-.55-2.4-.23-.18-.8-.41-1.71-.69-.59-.18-.92-.71-.96-1.58.04-.32.91-.96,2.61-1.92.82-.69,1.1-1.81.82-3.36.59-1.46.11-2.08-1.44-1.85ZM164.9,90.35c1.51-.04,2.47.64,2.88,2.06.04.64-.18,1.76-.69,3.36-.23,1.19-.34,2.2-.34,3.02.14.18.34.25.62.21.82-1.05,1.92-3.02,3.29-5.9,1.24-2.83,2.83-2.9,4.8-.21,2.33,1.14,3.68,2.74,4.05,4.8.04.92-.02,1.6-.21,2.06-.69,1.19-1.46,1.28-2.33.27-.55-.59-1.28-.71-2.19-.34-.92.5-1.83.92-2.74,1.24-.92.27-1.83.62-2.74,1.03-3.16.64-3.73,2.01-1.71,4.12,1.46,1.23,3.29,1.83,5.49,1.78,7.54.32,14.29-.18,20.24-1.51,1.37-.23,2.95-1.01,4.73-2.33,2.01-1.6,2.95-3.45,2.81-5.56.55-2.01.92-2.26,1.1-.75.18,1.83.94,3.5,2.26,5.01,1.74,1.28,1.85,2.65.34,4.12-.92.73-1.56,1.55-1.92,2.47-1.37,1.97-3.57,3.22-6.58,3.77-7.04,1.74-15.62,1.76-25.72.07-4.76-1.51-7.48-4.39-8.16-8.64-.23-3.02-.16-6.29.21-9.81-.37-2.1.48-3.54,2.54-4.32ZM167.85,67.64c-.37-.5-1.07-.34-2.13.48-2.01.87-2.81,2.13-2.4,3.77-.37,1.33.11,2.4,1.44,3.22,1.42,1.05,1.37,2.1-.14,3.16-1.56.69-2.1,2.38-1.65,5.08.23.69.64.92,1.24.69,1.1-.78,1.94-2.45,2.54-5.01.59-2.29,1.03-5.03,1.3-8.23.27-1.51.21-2.56-.21-3.16ZM175.33,95.36c-.55-2.38-1.65-2.08-3.29.89-.92,1.65-.46,2.29,1.37,1.92,2.38-.14,3.02-1.07,1.92-2.81ZM190.28,57.08c1.69-.46,3.11.39,4.25,2.54.23.87.21,2.01-.07,3.43-.41,5.08-.55,10.15-.41,15.23,0,2.33,1.1,3.04,3.29,2.13,1.69-.32,3.41.37,5.14,2.06,1.1,1.28,1.03,2.31-.21,3.09-1.37.78-3.2,1.3-5.49,1.58-1.14-.09-1.99.55-2.54,1.92,0,5.49-.16,9.24-.48,11.25-.37.92-.94,1.83-1.71,2.74-1.65,1.37-2.58,1.92-2.81,1.65-1.42-3.66-1.92-7.87-1.51-12.62.41-2.51-.46-3.36-2.61-2.54-1.6.5-3.2.92-4.8,1.24-1.37.37-2.72-.09-4.05-1.37-2.42-2.33-2.26-3.75.48-4.25l8.23-2.13c2.38-.23,3.38-1.44,3.02-3.64.14-6.45.16-12.92.07-19.41.18-1.42.91-2.38,2.19-2.88ZM177.66,74.23c1.65-.59,3.41-.37,5.28.69,1.19.55,1.65,1.37,1.37,2.47-.18.78-.98,1.3-2.4,1.58-1.37.32-2.74.12-4.12-.62-1.65-1.19-2.42-1.97-2.33-2.33.09-.59.82-1.19,2.2-1.78ZM177.94,65.24c2.15-1.28,4.32-1.07,6.52.62,1.55,1.33,1.46,2.58-.27,3.77-2.01.64-3.84.39-5.49-.75-2.1-1.05-2.36-2.26-.75-3.64Z"/>
        <path class="cls-2" d="M224.72,63.12c.82-1.01,1.94-1.1,3.36-.27,1.55,1.05,2.2,2.29,1.92,3.7-.37,2.1-.57,4.3-.62,6.58.23,1.14.75,1.67,1.58,1.58.69-.14,1.55.18,2.61.96,1.24,1.19,1.37,2.77.41,4.73-.55,1.28-1.99,2.84-4.32,4.67-.32.55-.55,1.1-.69,1.65v5.28c.64,1.56,1.85,1.46,3.64-.27,1.23-1.05,1.83-.82,1.78.69-.23,1.55-1.01,3.29-2.33,5.21-4.48,5.67-8.39,9.24-11.73,10.7-.69.27-1.6.27-2.74,0-1.65-.64-2.36-1.83-2.13-3.57.96-3.02,3.13-5.37,6.52-7.07,1.92-.64,2.65-1.99,2.19-4.05.04-1.51,0-3.11-.14-4.8-.32-.82-1.08-1.28-2.26-1.37-1.1-.32-2.01-.8-2.74-1.44-3.16-2.61-3.11-4.66.14-6.17.91-.59,1.83-1.12,2.74-1.58,1.69-.46,2.38-1.65,2.06-3.57-.18-2.1-.3-4.3-.34-6.58-.27-2.06.09-3.73,1.1-5.01ZM251.54,62.43c2.56-.64,3.96.64,4.18,3.84.09,1.46-.09,3.32-.55,5.56-.5,1.19-.27,1.92.69,2.2,1.33-.04,2.56-.53,3.7-1.44,1.23-2.01,2.77-2.63,4.6-1.85,1.05.46,1.65,1.21,1.78,2.26.18,5.95-.62,11.43-2.4,16.46-.14,1.51-1.46,2.86-3.98,4.05-1.46.92-2.29,1.12-2.47.62-.5-1.55-1.37-2.38-2.61-2.47-.92-.32-.55-.71,1.1-1.17,1.55-.59,2.4-1.46,2.54-2.61,1.55-4.16,2.03-8.14,1.44-11.94-.92-.59-2.1.21-3.57,2.4l-2.61,2.47c-.55.92-.89,2.29-1.03,4.12-.05,3.11-.73,5.85-2.06,8.23-1.19,1.6-1.88,2.31-2.06,2.13-.23-.23-.41-.69-.55-1.37-.18-2.97-.18-5.97,0-8.99-.41-.96-1.35-.82-2.81.41-1.37,1.01-2.08,2.13-2.13,3.36-.27,2.24-.37,4.66-.27,7.27,0,2.47.39,4.3,1.17,5.49.87,1.19,1.74,1.92,2.61,2.19,1.46.69,3.59,1.01,6.38.96,3.84.14,7.68-.25,11.52-1.17,5.53-1.1,8.32-4.18,8.37-9.26.37-1.46.71-1.28,1.03.55.04,1.88.94,3.66,2.68,5.35,1.23,1.23,1,2.56-.69,3.98-.5.82-.8,1.58-.89,2.26-.87,1.55-2.29,2.65-4.25,3.29-4.8,1.69-11.41,2.01-19.82.96-4.53-.64-8.05-2.74-10.56-6.31-.96-1.74-1.53-3.57-1.71-5.49l-.27-9.33c-.09-.23-.34-.57-.75-1.03-1.69-1.19-2.74-2.36-3.16-3.5-.18-1.37.85-2.45,3.09-3.22,1.01-.59,1.46-1.44,1.37-2.54-.32-2.01.46-3.38,2.33-4.12,1.24-.23,2.22.3,2.95,1.58.18,1.1.91,1.46,2.19,1.1,1.01-.55,1.58-1.17,1.71-1.85,0-4.75.82-8.76,2.47-12,.55-.78.98-1.26,1.3-1.44Z"/>
        <path class="cls-2" d="M313.68,56.46c.91-1.78,2.31-1.74,4.18.14.55.69.87,1.17.96,1.44,0,.5.37.92,1.1,1.23.59.14,1.67.02,3.22-.34,2.01-.46,3.59-.34,4.73.34,1.46,1.05,1.76,2.2.89,3.43-.41.82-1.28,1.3-2.61,1.44-2.33.37-4.12.85-5.35,1.44-.23.27.21.8,1.3,1.58,3.89,1.83,5.05,4.41,3.5,7.75.09.73.57,1.03,1.44.89,3.66-.23,7.32-.64,10.98-1.23.91-.18,1.83-.18,2.74,0,2.56.73,3.86,2.13,3.91,4.18.23,1.05-.25,1.83-1.44,2.33-.92.5-2.45.55-4.6.14-2.01-.46-4.28-.55-6.79-.27-3.02-.04-4.02,1.03-3.02,3.22,1.51,6.45,1.94,13.92,1.3,22.43-.09,1.92-.62,3.75-1.58,5.49-.46.96-1.28,1.55-2.47,1.78-1.97,1.01-3.48,2.03-4.53,3.09-2.01,1.33-3.38.82-4.12-1.51-.05-.82-.43-1.74-1.17-2.74-1.51-1.55-1.55-2.26-.14-2.13l2.06.14c1.23-.09,2.24-.78,3.02-2.06.5-1.19.75-2.74.75-4.67.69-7.27.82-13.88.41-19.82-.23-1.69-1.26-2.29-3.09-1.78-9.42.92-18.11,2.49-26.07,4.73-2.74,1.23-4.64.27-5.69-2.88,0-1.33,1.03-2.38,3.09-3.16,1.92-.59,4.66-1.19,8.23-1.78,1.69.09,2.95-.64,3.77-2.2.78-1.97,1.65-3.93,2.61-5.9-.18-.82-.82-1.26-1.92-1.3-1.28-.27-2.45-1-3.5-2.19-1.01-1.69-.25-2.9,2.26-3.64,2.29-.64,4.57-1.19,6.86-1.65,1.14-.18,1.94-.8,2.4-1.85.87-1.37,1.65-2.74,2.33-4.12ZM313.62,86.23c1.55-.59,2.86-.07,3.91,1.58.64,1.65.39,3.84-.75,6.59-.18.64-.07,1.55.34,2.74.04,2.1-1.19,3.57-3.7,4.39-1.83,1.01-3.66,2.08-5.49,3.22l-.89.82c-.73,1.69-1.65,2.2-2.74,1.51-.64-.46-1.33-1.23-2.06-2.33-2.01-4.02-3.18-7.68-3.5-10.98-.09-1.78.21-3.38.89-4.8.46-.78,1.12-1.19,1.99-1.24,3.43.5,7.43,0,12-1.51ZM311.7,90.97c-.55-.82-1.53-.71-2.95.34-2.84,1.33-4.12,2.84-3.84,4.53,0,2.56.75,3.96,2.26,4.18.87-.04,1.94-.8,3.22-2.26,1.42-2.1,1.85-4.37,1.3-6.79ZM316.91,69.98c-1.69-1.83-3.09-1.71-4.18.34-.87,1.6-2.29,3.22-4.25,4.87-1.46.96-2.17,1.85-2.13,2.67.18.18.82.23,1.92.14,3.79-.55,7.66-1.03,11.59-1.44,1.1.09,1.74-.27,1.92-1.1-.37-1.46-1.99-3.29-4.87-5.49Z"/>
        <path class="cls-2" d="M399.63,55.37c1.28-.14,2.2-.09,2.74.14,3.02,1.33,4.14,3.04,3.36,5.14-.37.82-.98,1.1-1.85.82l-5.49-.41c-2.24-.41-3.09.18-2.54,1.78.55.96.27,1.83-.82,2.61-2.33,1.33-3.91,2.67-4.73,4.05-.27.64-.16,1.21.34,1.71,7.32,4.76,14.63,8.44,21.95,11.04.69.18,1.37.53,2.06,1.03,1.42,1.1,1.44,1.67.07,1.71-1.74.14-3.54.57-5.42,1.3-.46.23-1.17.34-2.13.34-4.85-.46-10.33-2.65-16.46-6.58-1.19-.59-1.92-.73-2.2-.41-.14.37-.21.96-.21,1.78.18,1.83,0,3.66-.55,5.49-.5,1.46-.71,2.29-.62,2.47.64.5,1.58.64,2.81.41,2.01-.09,3.96,0,5.83.27.91,0,1.78-.21,2.61-.62,1.92-1.6,3.75-1.35,5.49.75.92,1.69,1.01,4.3.27,7.82-.37,1.92-1.19,4.05-2.47,6.38-.27,1.14-.21,1.83.21,2.06l5.08.07c2.74-.41,4.67.46,5.76,2.61.5,1.6.02,2.83-1.44,3.7-1.51.14-4.3.09-8.37-.14-12.26-.23-24.21.66-35.88,2.68-1.74.5-3.38.64-4.94.41-1.78-.73-2.81-1.92-3.09-3.57-.09-.41.21-1.01.89-1.78,1.83-1.1,5.12-1.81,9.88-2.13.64-.46.64-1.28,0-2.47-1.78-3.93-2.74-7.59-2.88-10.98.82-3.43,2.47-4.12,4.94-2.06,1.28.37,2.4.27,3.36-.27,1.83-.69,3.66-1.21,5.49-1.58,2.2-.18,3.04-1.07,2.54-2.68-.27-2.15-.44-5.4-.48-9.74-.78-.73-2.01-.27-3.7,1.37-5.85,4.71-12.26,8.99-19.21,12.83-1.74.82-2.19.55-1.37-.82,6.22-6.31,12.6-12.62,19.14-18.93,1.69-1.42,1.39-2.56-.89-3.43-.82-.46-1.26-.91-1.3-1.37.09-1.14.57-2.01,1.44-2.61.73-.5,1.78-.64,3.16-.41,2.24,1.14,3.84,1.55,4.8,1.23.27-.09.55-.25.82-.48l2.61-2.61c.55-.55.75-1.07.62-1.58-.23-.18-1.03-.23-2.4-.14-2.88.41-5.65,1.19-8.3,2.33-3.2,1.1-5.95,1.4-8.23.89-1.56-.41-2.65-1.28-3.29-2.61-.18-1.23.37-2.17,1.65-2.81,2.65-1.1,6.31-1.83,10.98-2.2,6.72-.69,13.51-1.3,20.37-1.85ZM383.03,95.49c-.82.32-1.26.92-1.3,1.78-.05,2.01.11,3.93.48,5.76.32,1.01.21,1.83-.34,2.47-1.05.96-1.9.66-2.54-.89-.5-1.97-.71-4.09-.62-6.38-.46-1.46-1.65-1.71-3.57-.75-1.14.41-1.74,1.19-1.78,2.33.23,1.83.53,3.66.89,5.49.14,2.06,1.03,2.93,2.68,2.61l5.49-.27c.96.18,1.83-.25,2.61-1.3,1.37-3.06,2.01-6.49,1.92-10.29-.59-.91-1.9-1.1-3.91-.55ZM396.41,93.09c-.46.32-1.37.66-2.74,1.03-2.19.32-3.02,1.46-2.47,3.43-.27,1.83-.8,3.66-1.58,5.49-1.51,2.47-1.44,3.87.21,4.18,1.33.09,2.47-.34,3.43-1.3,1.83-1.33,3.04-3.11,3.64-5.35.59-1.92.94-3.75,1.03-5.49.32-1.19.11-1.92-.62-2.2-.23,0-.53.07-.89.21Z"/>
      </g>
    </g>
  </g>
</svg>